<?xml version="1.0" standalone="no"?>
<!DOCTYPE svg PUBLIC "-//W3C//DTD SVG 20010904//EN"
 "http://www.w3.org/TR/2001/REC-SVG-20010904/DTD/svg10.dtd">
<svg version="1.0" xmlns="http://www.w3.org/2000/svg"
 width="231.000000pt" height="109.000000pt" viewBox="0 0 231.000000 109.000000"
 preserveAspectRatio="xMidYMid meet">

<g transform="translate(0.000000,109.000000) scale(0.100000,-0.100000)"
fill="#000000" stroke="none">
<path d="M1053 1076 c-88 -22 -164 -66 -234 -135 -36 -36 -74 -81 -83 -98
l-17 -33 30 0 c23 0 34 8 51 35 31 50 113 120 174 149 123 58 259 57 382 -4
63 -31 168 -125 179 -161 4 -13 15 -19 36 -19 16 0 29 4 29 9 0 18 -88 128
-127 159 -118 93 -282 131 -420 98z"/>
<path d="M1088 943 c-10 -2 -18 -8 -18 -13 0 -5 -12 -10 -27 -12 -40 -4 -43
-35 -4 -36 41 -1 51 -9 51 -38 0 -23 2 -24 70 -24 l69 0 -32 63 c-28 54 -36
62 -62 64 -17 0 -38 -1 -47 -4z m32 -25 c0 -4 -7 -8 -15 -8 -8 0 -15 4 -15 8
0 5 7 9 15 9 8 0 15 -4 15 -9z"/>
<path d="M210 821 c0 -23 54 -71 97 -85 39 -13 99 -16 350 -16 l303 0 0 34 0
35 -337 3 c-298 3 -342 5 -372 21 -39 20 -41 20 -41 8z"/>
<path d="M2055 811 c-26 -14 -77 -16 -362 -19 l-333 -3 0 -35 0 -34 298 0
c331 0 370 6 417 62 40 48 33 59 -20 29z"/>
<path d="M990 692 c0 -63 6 -115 16 -145 18 -52 82 -130 125 -153 26 -13 32
-13 57 0 34 18 94 82 119 128 13 25 18 63 21 151 l4 117 -171 0 -171 0 0 -98z
m222 29 c29 -26 33 -35 33 -81 0 -46 -4 -55 -33 -81 -28 -25 -40 -29 -92 -29
-55 0 -75 10 -50 25 6 3 10 42 10 86 0 46 -4 79 -10 79 -5 0 -10 7 -10 15 0
12 13 15 60 15 52 0 64 -4 92 -29z"/>
<path d="M1110 641 c0 -67 3 -79 18 -83 51 -14 98 47 81 106 -11 38 -34 56
-71 56 l-28 0 0 -79z"/>
<path d="M320 688 c0 -14 54 -48 91 -58 22 -6 142 -9 296 -8 l258 3 -3 30 c-2
17 -5 31 -6 32 -5 6 -636 7 -636 1z"/>
<path d="M1663 693 l-303 -3 0 -35 0 -35 258 0 c267 1 309 6 353 46 22 20 25
35 7 32 -7 -2 -149 -4 -315 -5z"/>
<path d="M422 590 c8 -25 56 -53 105 -61 46 -8 463 -13 463 -5 0 1 -5 17 -11
35 l-11 31 -243 0 c-133 0 -257 3 -275 7 -25 4 -32 3 -28 -7z"/>
<path d="M1609 593 c-256 -3 -257 -3 -263 -26 -13 -48 -18 -47 197 -47 219 1
275 7 315 37 29 22 40 44 20 41 -7 -2 -128 -4 -269 -5z"/>
<path d="M685 478 c16 -55 76 -167 111 -207 150 -173 432 -213 626 -89 97 61
196 194 214 288 6 27 4 30 -17 30 -20 0 -28 -11 -52 -71 -40 -97 -115 -177
-214 -226 -65 -32 -86 -37 -163 -41 -116 -6 -204 20 -288 83 -68 51 -137 146
-155 212 -10 38 -14 43 -40 43 -25 0 -28 -3 -22 -22z"/>
<path d="M988 419 c-32 -26 -38 -37 -38 -70 0 -37 2 -39 30 -39 27 0 33 6 57
54 22 46 24 57 14 70 -18 21 -20 20 -63 -15z"/>
<path d="M1271 436 c-9 -11 -6 -26 16 -70 23 -48 31 -56 55 -56 26 0 28 3 28
39 0 33 -6 44 -37 70 -43 35 -46 36 -62 17z"/>
<path d="M1055 350 c-28 -55 -30 -67 -15 -105 9 -24 11 -25 34 -10 17 12 26
29 31 63 3 26 8 54 10 62 3 8 -4 21 -15 28 -18 11 -22 7 -45 -38z"/>
<path d="M1220 386 c-8 -10 -9 -33 -5 -69 8 -62 12 -70 41 -85 19 -10 23 -8
28 11 10 39 7 65 -16 112 -24 49 -29 52 -48 31z"/>
<path d="M1135 323 c-3 -21 -8 -47 -10 -57 -2 -11 5 -33 17 -49 l21 -29 18 30
c16 24 18 39 12 83 -7 45 -12 55 -30 57 -18 3 -23 -3 -28 -35z"/>
</g>
</svg>
