<?xml version="1.0" standalone="no"?>
<!DOCTYPE svg PUBLIC "-//W3C//DTD SVG 20010904//EN"
 "http://www.w3.org/TR/2001/REC-SVG-20010904/DTD/svg10.dtd">
<svg version="1.0" xmlns="http://www.w3.org/2000/svg"
 width="231.000000pt" height="140.000000pt" viewBox="0 0 231.000000 140.000000"
 preserveAspectRatio="xMidYMid meet">

<g transform="translate(0.000000,140.000000) scale(0.100000,-0.100000)"
fill="#000000" stroke="none">
<path d="M1052 1386 c-90 -22 -178 -74 -242 -143 -33 -35 -67 -77 -75 -93
l-16 -30 30 0 c23 0 34 8 51 35 11 19 44 54 71 79 192 172 485 143 644 -65 26
-35 44 -49 61 -49 13 0 24 4 24 9 0 5 -20 35 -43 68 -117 158 -319 233 -505
189z"/>
<path d="M1088 1253 c-10 -2 -18 -8 -18 -13 0 -5 -12 -10 -27 -12 -40 -4 -43
-35 -4 -36 41 -1 51 -9 51 -38 0 -23 2 -24 70 -24 l69 0 -32 63 c-28 54 -36
62 -62 64 -17 0 -38 -1 -47 -4z m32 -25 c0 -4 -7 -8 -15 -8 -8 0 -15 4 -15 8
0 5 7 9 15 9 8 0 15 -4 15 -9z"/>
<path d="M210 1131 c0 -23 54 -71 97 -85 39 -13 99 -16 350 -16 l303 0 0 34 0
35 -337 3 c-298 3 -342 5 -372 21 -39 20 -41 20 -41 8z"/>
<path d="M2055 1121 c-26 -14 -77 -16 -362 -19 l-333 -3 0 -35 0 -34 298 0
c331 0 370 6 417 62 40 48 33 59 -20 29z"/>
<path d="M990 1002 c0 -63 6 -115 16 -145 18 -52 82 -130 125 -153 26 -13 32
-13 57 0 34 18 94 82 119 128 13 25 18 63 21 151 l4 117 -171 0 -171 0 0 -98z
m222 29 c29 -26 33 -35 33 -81 0 -46 -4 -55 -33 -81 -28 -25 -40 -29 -92 -29
-55 0 -75 10 -50 25 6 3 10 42 10 86 0 46 -4 79 -10 79 -5 0 -10 7 -10 15 0
12 13 15 60 15 52 0 64 -4 92 -29z"/>
<path d="M1110 949 l0 -80 38 3 c93 8 84 158 -10 158 l-28 0 0 -81z"/>
<path d="M320 1003 c0 -16 37 -44 77 -59 28 -10 105 -13 301 -14 l262 0 0 35
0 35 -297 0 c-164 0 -308 3 -320 6 -13 4 -23 2 -23 -3z"/>
<path d="M1663 1003 l-303 -3 0 -35 0 -35 258 0 c267 1 309 6 353 46 22 20 25
35 7 32 -7 -2 -149 -4 -315 -5z"/>
<path d="M422 900 c8 -25 56 -53 105 -61 56 -9 447 -12 456 -3 3 3 1 19 -5 35
l-10 29 -243 0 c-133 0 -257 3 -275 7 -25 4 -32 3 -28 -7z"/>
<path d="M1609 903 c-256 -3 -257 -3 -263 -26 -13 -48 -18 -47 197 -47 219 1
275 7 315 37 29 22 40 44 20 41 -7 -2 -128 -4 -269 -5z"/>
<path d="M680 805 c0 -15 47 -126 66 -157 143 -227 453 -299 676 -156 97 61
191 188 212 286 7 29 5 32 -16 32 -19 0 -28 -12 -51 -71 -40 -97 -115 -177
-214 -226 -65 -32 -86 -37 -163 -41 -114 -6 -203 20 -287 82 -67 49 -138 146
-156 213 -10 38 -15 43 -39 43 -15 0 -28 -2 -28 -5z"/>
<path d="M988 729 c-32 -26 -38 -37 -38 -70 0 -36 2 -39 29 -39 24 0 33 8 57
54 24 46 26 56 15 70 -18 21 -20 21 -63 -15z"/>
<path d="M1271 746 c-9 -11 -6 -26 16 -70 23 -48 31 -56 55 -56 26 0 28 3 28
39 0 33 -6 44 -37 70 -43 35 -46 36 -62 17z"/>
<path d="M1054 659 c-19 -39 -24 -60 -19 -85 6 -36 15 -40 44 -24 12 6 21 26
25 57 4 26 9 55 11 63 3 8 -4 21 -15 28 -18 11 -22 7 -46 -39z"/>
<path d="M1220 696 c-8 -10 -9 -33 -5 -69 8 -62 12 -70 41 -85 19 -10 23 -8
28 11 10 39 7 65 -16 112 -24 49 -29 52 -48 31z"/>
<path d="M1135 633 c-3 -21 -8 -47 -10 -57 -2 -11 5 -33 17 -49 l21 -29 18 30
c16 24 18 39 12 83 -7 45 -12 55 -30 57 -18 3 -23 -3 -28 -35z"/>
<path d="M450 255 c0 -8 7 -15 15 -15 12 0 15 -18 15 -100 0 -80 -3 -102 -15
-106 -8 -4 -15 -10 -15 -15 0 -14 132 -10 158 5 36 19 62 66 62 111 0 87 -56
135 -156 135 -50 0 -64 -3 -64 -15z m146 -30 c50 -34 55 -122 10 -164 -13 -12
-40 -24 -60 -28 l-36 -6 0 107 0 106 33 0 c18 0 42 -7 53 -15z"/>
<path d="M735 245 c-47 -46 -24 -92 60 -122 41 -15 51 -23 53 -45 6 -50 -73
-64 -98 -18 -10 19 -50 29 -50 13 0 -5 10 -21 23 -36 43 -53 131 -44 158 16
18 39 -3 73 -58 92 -61 23 -87 49 -73 76 15 27 75 26 92 -1 13 -21 48 -28 48
-10 0 6 -12 22 -27 35 -38 33 -95 34 -128 0z"/>
<path d="M965 154 c-22 -64 -45 -119 -52 -121 -27 -10 -11 -23 27 -23 37 0 55
13 29 22 -9 3 -9 12 -2 33 9 27 14 30 60 33 48 3 51 2 64 -29 10 -25 10 -34 1
-37 -27 -9 -10 -22 28 -22 42 0 49 6 26 24 -7 6 -31 62 -52 124 -36 102 -41
112 -64 112 -23 0 -28 -10 -65 -116z m84 35 c7 -23 15 -47 18 -55 4 -11 -5
-14 -36 -14 -23 0 -41 4 -41 8 0 18 32 102 39 102 4 0 13 -18 20 -41z"/>
<path d="M1150 256 c0 -8 6 -16 14 -19 7 -3 31 -55 52 -116 55 -157 73 -157
128 0 21 61 45 113 52 116 8 3 14 11 14 19 0 10 -12 14 -40 14 -28 0 -40 -4
-40 -14 0 -8 5 -16 11 -18 8 -3 -14 -76 -57 -188 -4 -9 -21 28 -40 85 -20 58
-30 101 -24 103 5 2 10 10 10 18 0 10 -12 14 -40 14 -28 0 -40 -4 -40 -14z"/>
<path d="M1440 255 c0 -8 5 -15 10 -15 6 0 10 -40 10 -100 0 -80 -3 -102 -15
-106 -35 -14 2 -24 86 -24 l89 0 0 35 c0 40 -26 50 -32 13 -3 -20 -9 -23 -48
-23 l-45 0 -3 48 -3 47 40 0 c51 0 54 18 4 22 -37 3 -38 4 -41 46 l-3 42 50 0
c44 0 51 -3 51 -20 0 -11 7 -20 15 -20 10 0 15 11 15 35 l0 35 -90 0 c-73 0
-90 -3 -90 -15z"/>
<path d="M1660 255 c0 -8 5 -15 10 -15 6 0 10 -42 10 -105 0 -63 -4 -105 -10
-105 -5 0 -10 -4 -10 -10 0 -5 18 -10 40 -10 22 0 40 5 40 10 0 6 -4 10 -10
10 -5 0 -10 23 -10 50 0 45 2 50 23 50 35 0 47 -14 61 -66 10 -42 16 -49 39
-52 19 -2 27 1 27 12 0 9 -6 16 -14 16 -8 0 -17 15 -20 34 -4 19 -13 39 -20
45 -12 10 -10 16 10 36 31 31 30 59 -1 90 -21 22 -33 25 -95 25 -56 0 -70 -3
-70 -15z m138 -24 c8 -5 12 -21 10 -37 -3 -26 -7 -29 -45 -32 l-43 -3 0 40 c0
40 1 41 33 41 17 0 38 -4 45 -9z"/>
</g>
</svg>
